<?xml version="1.0" encoding="UTF-8"?>
<!DOCTYPE svg PUBLIC "-//W3C//DTD SVG 1.1//EN" "http://www.w3.org/Graphics/SVG/1.1/DTD/svg11.dtd">
<svg version="1.1" xmlns="http://www.w3.org/2000/svg" xmlns:xlink="http://www.w3.org/1999/xlink" x="0" y="0" width="250" height="467" viewBox="0, 0, 250, 467">
  <g id="Layer_1">
    <g>
      <g>
        <path d="M233.013,2.47 C238.203,3.87 243.213,5.88 248.483,7.06 C247.933,13.29 244.793,18.77 242.983,24.65 C237.493,36.28 234.443,48.91 228.793,60.46 C227.653,63.85 226.433,67.19 225.093,70.49 C223.253,74.72 222.613,80.45 217.853,82.46 C212.263,84.68 206.343,86.02 200.403,86.8 C202.643,81.2 204.753,75.54 207.183,70.01 C207.683,68.65 208.153,67.28 208.643,65.9 C210.533,60.08 212.873,54.41 214.873,48.61 C219.863,37.6 223.443,26.01 227.753,14.71 C228.813,10.36 230.993,6.44 233.013,2.47 z" fill="#E63E00"/>
        <path d="M233.013,2.47 C238.203,3.87 243.213,5.88 248.483,7.06 C247.933,13.29 244.793,18.77 242.983,24.65 C237.493,36.28 234.443,48.91 228.793,60.46 C227.653,63.85 226.433,67.19 225.093,70.49 C223.253,74.72 222.613,80.45 217.853,82.46 C212.263,84.68 206.343,86.02 200.403,86.8 C202.643,81.2 204.753,75.54 207.183,70.01 C207.683,68.65 208.153,67.28 208.643,65.9 C210.533,60.08 212.873,54.41 214.873,48.61 C219.863,37.6 223.443,26.01 227.753,14.71 C228.813,10.36 230.993,6.44 233.013,2.47 z" fill-opacity="0" stroke="#E63E00" stroke-width="0.5"/>
      </g>
      <g>
        <path d="M71.604,61.19 C78.664,61.35 85.504,59.12 92.574,59.29 C110.914,59.29 129.254,59.24 147.594,59.31 C154.654,59.17 161.504,61.34 168.574,61.2 C176.974,61.64 185.474,61.81 193.694,63.82 C198.644,64.65 203.554,66.26 208.644,65.9 C208.154,67.28 207.684,68.65 207.184,70.01 C199.214,66.73 190.474,66.99 182.114,65.63 C174.764,64.35 167.264,64.48 159.944,63.09 C152.884,61.81 145.694,62.54 138.584,62.39 C120.224,62 101.854,62.33 83.504,62.49 C65.734,65.11 47.654,65.83 30.134,69.94 C25.584,71.14 20.414,72.28 17.344,76.15 C15.484,78.5 18.464,80.6 20.334,81.62 C26.064,84.6 32.554,85.69 38.864,86.87 C46.854,88.06 54.804,89.52 62.804,90.77 C82.994,92.73 103.304,92.4 123.574,92.47 C137.234,92.33 150.904,92.62 164.544,91.62 C176.654,91.49 188.474,88.61 200.404,86.8 C206.344,86.02 212.264,84.68 217.854,82.46 C222.614,80.45 223.254,74.72 225.094,70.49 C227.254,71.85 229.594,72.92 231.844,74.19 C234.334,75.53 235.064,78.49 235.884,80.99 C232.574,83.27 229.244,85.53 225.564,87.12 C223.294,88.02 220.994,88.79 218.724,89.56 C211.994,92.05 204.754,92.42 197.944,94.56 C197.534,95.55 197.164,96.56 196.834,97.57 C196.784,96.82 196.674,95.34 196.614,94.59 C190.374,94.89 184.164,95.57 178.024,96.58 C158.944,98.67 139.744,98.47 120.584,98.66 C104.624,98.31 88.624,98.99 72.724,97.41 C72.184,97.33 71.114,97.17 70.574,97.09 C66.584,95.4 62.644,93.5 58.374,92.68 C53.174,91.7 47.894,91.3 42.714,90.28 C35.114,88.77 27.354,89.98 19.714,89.17 C17.594,88.65 15.524,87.97 13.534,87.17 C9.914,85.33 6.674,82.89 3.374,80.56 C4.674,74.75 10.654,72.27 15.724,70.53 C25.354,67.15 35.484,65.8 45.474,63.85 C54.003,61.75 62.864,61.6 71.604,61.19 z" fill="#E6CFA0"/>
        <path d="M71.604,61.19 C78.664,61.35 85.504,59.12 92.574,59.29 C110.914,59.29 129.254,59.24 147.594,59.31 C154.654,59.17 161.504,61.34 168.574,61.2 C176.974,61.64 185.474,61.81 193.694,63.82 C198.644,64.65 203.554,66.26 208.644,65.9 C208.154,67.28 207.684,68.65 207.184,70.01 C199.214,66.73 190.474,66.99 182.114,65.63 C174.764,64.35 167.264,64.48 159.944,63.09 C152.884,61.81 145.694,62.54 138.584,62.39 C120.224,62 101.854,62.33 83.504,62.49 C65.734,65.11 47.654,65.83 30.134,69.94 C25.584,71.14 20.414,72.28 17.344,76.15 C15.484,78.5 18.464,80.6 20.334,81.62 C26.064,84.6 32.554,85.69 38.864,86.87 C46.854,88.06 54.804,89.52 62.804,90.77 C82.994,92.73 103.304,92.4 123.574,92.47 C137.234,92.33 150.904,92.62 164.544,91.62 C176.654,91.49 188.474,88.61 200.404,86.8 C206.344,86.02 212.264,84.68 217.854,82.46 C222.614,80.45 223.254,74.72 225.094,70.49 C227.254,71.85 229.594,72.92 231.844,74.19 C234.334,75.53 235.064,78.49 235.884,80.99 C232.574,83.27 229.244,85.53 225.564,87.12 C223.294,88.02 220.994,88.79 218.724,89.56 C211.994,92.05 204.754,92.42 197.944,94.56 C197.534,95.55 197.164,96.56 196.834,97.57 C196.784,96.82 196.674,95.34 196.614,94.59 C190.374,94.89 184.164,95.57 178.024,96.58 C158.944,98.67 139.744,98.47 120.584,98.66 C104.624,98.31 88.624,98.99 72.724,97.41 C72.184,97.33 71.114,97.17 70.574,97.09 C66.584,95.4 62.644,93.5 58.374,92.68 C53.174,91.7 47.894,91.3 42.714,90.28 C35.114,88.77 27.354,89.98 19.714,89.17 C17.594,88.65 15.524,87.97 13.534,87.17 C9.914,85.33 6.674,82.89 3.374,80.56 C4.674,74.75 10.654,72.27 15.724,70.53 C25.354,67.15 35.484,65.8 45.474,63.85 C54.003,61.75 62.864,61.6 71.604,61.19 z" fill-opacity="0" stroke="#E6CFA0" stroke-width="0.5"/>
      </g>
      <g>
        <path d="M30.134,69.94 C47.654,65.83 65.734,65.11 83.504,62.49 C101.854,62.33 120.224,62 138.584,62.39 C145.694,62.54 152.884,61.81 159.944,63.09 C167.264,64.48 174.764,64.35 182.114,65.63 C190.474,66.99 199.214,66.73 207.184,70.01 C204.754,75.54 202.644,81.2 200.404,86.8 C188.474,88.61 176.654,91.49 164.544,91.62 C150.904,92.62 137.234,92.33 123.574,92.47 C103.304,92.4 82.994,92.73 62.804,90.77 C54.804,89.52 46.854,88.06 38.864,86.87 C32.554,85.69 26.064,84.6 20.334,81.62 C18.464,80.6 15.484,78.5 17.344,76.15 C20.414,72.28 25.583,71.14 30.134,69.94 z" fill="#F1E8CE"/>
        <path d="M30.134,69.94 C47.654,65.83 65.734,65.11 83.504,62.49 C101.854,62.33 120.224,62 138.584,62.39 C145.694,62.54 152.884,61.81 159.944,63.09 C167.264,64.48 174.764,64.35 182.114,65.63 C190.474,66.99 199.214,66.73 207.184,70.01 C204.754,75.54 202.644,81.2 200.404,86.8 C188.474,88.61 176.654,91.49 164.544,91.62 C150.904,92.62 137.234,92.33 123.574,92.47 C103.304,92.4 82.994,92.73 62.804,90.77 C54.804,89.52 46.854,88.06 38.864,86.87 C32.554,85.69 26.064,84.6 20.334,81.62 C18.464,80.6 15.484,78.5 17.344,76.15 C20.414,72.28 25.583,71.14 30.134,69.94 z" fill-opacity="0" stroke="#F1E8CE" stroke-width="0.5"/>
      </g>
      <g>
        <path d="M3.374,80.56 C6.674,82.89 9.914,85.33 13.534,87.17 C13.094,97.3 13.084,107.46 13.544,117.6 C9.854,119.24 6.654,121.72 3.564,124.26 C3.213,109.69 3.573,95.12 3.374,80.56 z" fill="#B38559"/>
        <path d="M3.374,80.56 C6.674,82.89 9.914,85.33 13.534,87.17 C13.094,97.3 13.084,107.46 13.544,117.6 C9.854,119.24 6.654,121.72 3.564,124.26 C3.213,109.69 3.573,95.12 3.374,80.56 z" fill-opacity="0" stroke="#B38559" stroke-width="0.5"/>
      </g>
      <g>
        <path d="M225.563,87.12 C229.243,85.53 232.573,83.27 235.883,80.99 C235.783,95.45 235.633,109.91 235.953,124.37 C232.803,121.62 229.393,119.1 225.473,117.61 C226.104,107.47 225.993,97.28 225.563,87.12 z" fill="#B28458"/>
        <path d="M225.563,87.12 C229.243,85.53 232.573,83.27 235.883,80.99 C235.783,95.45 235.633,109.91 235.953,124.37 C232.803,121.62 229.393,119.1 225.473,117.61 C226.104,107.47 225.993,97.28 225.563,87.12 z" fill-opacity="0" stroke="#B28458" stroke-width="0.5"/>
      </g>
      <g>
        <path d="M13.533,87.17 C15.523,87.97 17.593,88.65 19.713,89.17 C18.923,90.38 18.153,91.59 17.433,92.8 C19.163,93.72 20.903,94.62 22.743,95.4 C25.673,101.07 25.613,108.05 22.343,113.56 C24.533,113.28 26.743,113.04 28.983,112.75 C25.693,113.72 22.493,114.93 19.283,116.05 C17.333,116.53 15.413,117.01 13.543,117.6 C13.083,107.46 13.094,97.3 13.533,87.17 z" fill="#F1E8CE"/>
        <path d="M13.533,87.17 C15.523,87.97 17.593,88.65 19.713,89.17 C18.923,90.38 18.153,91.59 17.433,92.8 C19.163,93.72 20.903,94.62 22.743,95.4 C25.673,101.07 25.613,108.05 22.343,113.56 C24.533,113.28 26.743,113.04 28.983,112.75 C25.693,113.72 22.493,114.93 19.283,116.05 C17.333,116.53 15.413,117.01 13.543,117.6 C13.083,107.46 13.094,97.3 13.533,87.17 z" fill-opacity="0" stroke="#F1E8CE" stroke-width="0.5"/>
      </g>
      <g>
        <path d="M218.723,89.56 C220.993,88.79 223.293,88.02 225.563,87.12 C225.993,97.28 226.103,107.47 225.473,117.61 C220.223,115.95 214.803,114.71 209.843,112.29 C212.533,104.62 214.864,96.76 218.723,89.56 z" fill="#F1E8CE"/>
        <path d="M218.723,89.56 C220.993,88.79 223.293,88.02 225.563,87.12 C225.993,97.28 226.103,107.47 225.473,117.61 C220.223,115.95 214.803,114.71 209.843,112.29 C212.533,104.62 214.864,96.76 218.723,89.56 z" fill-opacity="0" stroke="#F1E8CE" stroke-width="0.5"/>
      </g>
      <g>
        <path d="M19.713,89.17 C27.353,89.98 35.113,88.77 42.713,90.28 C47.893,91.3 53.173,91.7 58.373,92.68 C62.643,93.5 66.583,95.4 70.573,97.09 C68.943,98.74 67.123,100.48 64.643,100.29 C50.553,100.96 36.213,99.69 22.743,95.4 C20.903,94.62 19.163,93.72 17.433,92.8 C18.154,91.59 18.924,90.38 19.713,89.17 z" fill="#FFFEFE"/>
        <path d="M19.713,89.17 C27.353,89.98 35.113,88.77 42.713,90.28 C47.893,91.3 53.173,91.7 58.373,92.68 C62.643,93.5 66.583,95.4 70.573,97.09 C68.943,98.74 67.123,100.48 64.643,100.29 C50.553,100.96 36.213,99.69 22.743,95.4 C20.903,94.62 19.163,93.72 17.433,92.8 C18.154,91.59 18.924,90.38 19.713,89.17 z" fill-opacity="0" stroke="#FFFEFE" stroke-width="0.5"/>
      </g>
      <g>
        <path d="M197.944,94.56 C204.754,92.42 211.994,92.05 218.724,89.56 C214.864,96.76 212.534,104.62 209.844,112.29 C207.874,118.34 205.514,124.25 203.134,130.14 C197.234,130.81 191.284,130.79 185.384,130.27 C187.024,123.28 189.244,116.4 192.164,109.82 C193.974,105.84 195.424,101.71 196.834,97.57 C197.164,96.56 197.533,95.55 197.944,94.56 z" fill="#E63E00"/>
        <path d="M197.944,94.56 C204.754,92.42 211.994,92.05 218.724,89.56 C214.864,96.76 212.534,104.62 209.844,112.29 C207.874,118.34 205.514,124.25 203.134,130.14 C197.234,130.81 191.284,130.79 185.384,130.27 C187.024,123.28 189.244,116.4 192.164,109.82 C193.974,105.84 195.424,101.71 196.834,97.57 C197.164,96.56 197.533,95.55 197.944,94.56 z" fill-opacity="0" stroke="#E63E00" stroke-width="0.5"/>
      </g>
      <g>
        <path d="M178.023,96.58 C184.163,95.57 190.373,94.89 196.613,94.59 C196.673,95.34 196.783,96.82 196.833,97.57 C195.423,101.71 193.973,105.84 192.163,109.82 C184.223,108.74 176.223,108.27 168.253,107.69 C160.453,106.12 152.473,106.7 144.593,106.19 C128.963,105.49 113.323,105.73 97.693,105.91 C89.153,106.41 80.533,105.76 72.063,107.11 C72.243,103.88 72.463,100.64 72.723,97.41 C88.623,98.99 104.623,98.31 120.583,98.66 C139.743,98.47 158.944,98.67 178.023,96.58 z" fill="#F1E8CE"/>
        <path d="M178.023,96.58 C184.163,95.57 190.373,94.89 196.613,94.59 C196.673,95.34 196.783,96.82 196.833,97.57 C195.423,101.71 193.973,105.84 192.163,109.82 C184.223,108.74 176.223,108.27 168.253,107.69 C160.453,106.12 152.473,106.7 144.593,106.19 C128.963,105.49 113.323,105.73 97.693,105.91 C89.153,106.41 80.533,105.76 72.063,107.11 C72.243,103.88 72.463,100.64 72.723,97.41 C88.623,98.99 104.623,98.31 120.583,98.66 C139.743,98.47 158.944,98.67 178.023,96.58 z" fill-opacity="0" stroke="#F1E8CE" stroke-width="0.5"/>
      </g>
      <g>
        <path d="M22.743,95.4 C36.213,99.69 50.553,100.96 64.643,100.29 C67.123,100.48 68.943,98.74 70.573,97.09 C71.113,97.17 72.183,97.33 72.723,97.41 C72.463,100.64 72.243,103.88 72.063,107.11 C63.133,108.76 53.973,108.56 45.053,110.21 C39.723,111.25 34.333,111.89 28.983,112.75 C26.743,113.04 24.533,113.28 22.343,113.56 C25.614,108.05 25.674,101.07 22.743,95.4 z" fill="#F5EFDD"/>
        <path d="M22.743,95.4 C36.213,99.69 50.553,100.96 64.643,100.29 C67.123,100.48 68.943,98.74 70.573,97.09 C71.113,97.17 72.183,97.33 72.723,97.41 C72.463,100.64 72.243,103.88 72.063,107.11 C63.133,108.76 53.973,108.56 45.053,110.21 C39.723,111.25 34.333,111.89 28.983,112.75 C26.743,113.04 24.533,113.28 22.343,113.56 C25.614,108.05 25.674,101.07 22.743,95.4 z" fill-opacity="0" stroke="#F5EFDD" stroke-width="0.5"/>
      </g>
      <g>
        <path d="M97.694,105.91 C113.324,105.73 128.964,105.49 144.594,106.19 C152.474,106.7 160.454,106.12 168.254,107.69 C176.224,108.27 184.224,108.74 192.164,109.82 C189.244,116.4 187.024,123.28 185.384,130.27 C191.284,130.79 197.234,130.81 203.134,130.14 C205.514,124.25 207.874,118.34 209.844,112.29 C214.804,114.71 220.224,115.95 225.474,117.61 C229.394,119.1 232.804,121.62 235.954,124.37 C235.844,125.04 235.644,126.39 235.534,127.06 C229.654,133.06 221.224,135.32 213.274,137.03 C204.884,138.61 196.734,141.53 188.154,141.86 C181.924,142.07 175.784,143.09 169.634,143.97 C154.304,144.83 138.954,145.57 123.584,145.38 C110.264,145.25 96.914,145.67 83.624,144.59 C79.684,144.33 75.754,144.31 71.834,144.34 C72.104,132.43 71.834,120.52 71.964,108.61 C81.694,106.14 91.774,107.02 101.704,106.98 C100.323,106.61 99.023,106.23 97.694,105.91 z" fill="#663725"/>
        <path d="M97.694,105.91 C113.324,105.73 128.964,105.49 144.594,106.19 C152.474,106.7 160.454,106.12 168.254,107.69 C176.224,108.27 184.224,108.74 192.164,109.82 C189.244,116.4 187.024,123.28 185.384,130.27 C191.284,130.79 197.234,130.81 203.134,130.14 C205.514,124.25 207.874,118.34 209.844,112.29 C214.804,114.71 220.224,115.95 225.474,117.61 C229.394,119.1 232.804,121.62 235.954,124.37 C235.844,125.04 235.644,126.39 235.534,127.06 C229.654,133.06 221.224,135.32 213.274,137.03 C204.884,138.61 196.734,141.53 188.154,141.86 C181.924,142.07 175.784,143.09 169.634,143.97 C154.304,144.83 138.954,145.57 123.584,145.38 C110.264,145.25 96.914,145.67 83.624,144.59 C79.684,144.33 75.754,144.31 71.834,144.34 C72.104,132.43 71.834,120.52 71.964,108.61 C81.694,106.14 91.774,107.02 101.704,106.98 C100.323,106.61 99.023,106.23 97.694,105.91 z" fill-opacity="0" stroke="#663725" stroke-width="0.5"/>
      </g>
      <g>
        <path d="M72.063,107.11 C80.533,105.76 89.153,106.41 97.693,105.91 C99.023,106.23 100.323,106.61 101.703,106.98 C91.773,107.02 81.693,106.14 71.963,108.61 C71.833,120.52 72.103,132.43 71.833,144.34 C62.913,142.09 53.673,142.49 44.653,141.1 C39.703,140.45 34.563,137.7 29.723,140.16 C28.473,135.74 28.683,130.7 26.043,126.81 C25.163,125.17 23.203,125.86 21.763,125.87 C24.003,122.77 24.953,119.06 24.953,115.25 C23.023,115.5 21.143,115.73 19.283,116.05 C22.493,114.93 25.693,113.72 28.983,112.75 C34.333,111.89 39.723,111.25 45.053,110.21 C53.973,108.56 63.134,108.76 72.063,107.11 z" fill="#947367"/>
        <path d="M72.063,107.11 C80.533,105.76 89.153,106.41 97.693,105.91 C99.023,106.23 100.323,106.61 101.703,106.98 C91.773,107.02 81.693,106.14 71.963,108.61 C71.833,120.52 72.103,132.43 71.833,144.34 C62.913,142.09 53.673,142.49 44.653,141.1 C39.703,140.45 34.563,137.7 29.723,140.16 C28.473,135.74 28.683,130.7 26.043,126.81 C25.163,125.17 23.203,125.86 21.763,125.87 C24.003,122.77 24.953,119.06 24.953,115.25 C23.023,115.5 21.143,115.73 19.283,116.05 C22.493,114.93 25.693,113.72 28.983,112.75 C34.333,111.89 39.723,111.25 45.053,110.21 C53.973,108.56 63.134,108.76 72.063,107.11 z" fill-opacity="0" stroke="#947367" stroke-width="0.5"/>
      </g>
      <g>
        <path d="M19.283,116.05 C21.143,115.73 23.023,115.5 24.953,115.25 C24.953,119.06 24.003,122.77 21.763,125.87 C18.793,130.56 18.613,136.23 18.113,141.59 C18.023,139.32 17.773,137.07 17.553,134.81 C12.493,133.23 7.803,130.66 3.803,127.18 C3.743,126.45 3.623,124.99 3.563,124.26 C6.653,121.72 9.853,119.24 13.543,117.6 C15.414,117.01 17.333,116.53 19.283,116.05 z" fill="#663725"/>
        <path d="M19.283,116.05 C21.143,115.73 23.023,115.5 24.953,115.25 C24.953,119.06 24.003,122.77 21.763,125.87 C18.793,130.56 18.613,136.23 18.113,141.59 C18.023,139.32 17.773,137.07 17.553,134.81 C12.493,133.23 7.803,130.66 3.803,127.18 C3.743,126.45 3.623,124.99 3.563,124.26 C6.653,121.72 9.853,119.24 13.543,117.6 C15.414,117.01 17.333,116.53 19.283,116.05 z" fill-opacity="0" stroke="#663725" stroke-width="0.5"/>
      </g>
      <g>
        <path d="M21.763,125.87 C23.203,125.86 25.163,125.17 26.043,126.81 C28.683,130.7 28.473,135.74 29.723,140.16 C31.023,152.09 30.823,164.42 27.013,175.9 C26.283,177.29 24.703,177.95 23.583,178.93 C20.913,175.51 19.123,171.47 18.753,167.13 C17.783,158.66 17.503,150.1 18.113,141.59 C18.614,136.23 18.793,130.56 21.763,125.87 z" fill="#FFFFFF"/>
        <path d="M21.763,125.87 C23.203,125.86 25.163,125.17 26.043,126.81 C28.683,130.7 28.473,135.74 29.723,140.16 C31.023,152.09 30.823,164.42 27.013,175.9 C26.283,177.29 24.703,177.95 23.583,178.93 C20.913,175.51 19.123,171.47 18.753,167.13 C17.783,158.66 17.503,150.1 18.113,141.59 C18.614,136.23 18.793,130.56 21.763,125.87 z" fill-opacity="0" stroke="#FFFFFF" stroke-width="0.5"/>
      </g>
      <g>
        <path d="M3.803,127.18 C7.803,130.66 12.493,133.23 17.553,134.81 C17.773,137.07 18.023,139.32 18.113,141.59 C17.503,150.1 17.783,158.66 18.753,167.13 C19.123,171.47 20.913,175.51 23.583,178.93 C24.833,182.27 25.093,185.94 24.603,189.46 C22.333,192.69 22.763,196.68 22.803,200.41 C22.693,204.66 24.293,209.31 27.963,211.76 C32.893,229.86 36.113,248.37 40.513,266.61 C44.183,278.16 46.063,290.16 48.813,301.94 C51.983,317.33 54.863,332.79 57.093,348.34 C57.633,359.85 57.383,371.41 57.283,382.93 C54.763,389.05 54.543,395.85 55.603,402.32 C56.033,405.01 57.663,407.29 59.143,409.53 C61.833,412.68 64.953,416.41 69.513,416.34 C78.223,417.52 86.913,411.09 88.833,402.63 C89.773,398.37 89.833,393.96 91.073,389.76 C95.363,376.76 94.833,362.86 94.873,349.34 C94.573,337.96 93.893,326.5 91.463,315.35 C90.203,309.68 89.493,303.91 88.833,298.15 C86.343,283.47 84.213,268.74 81.773,254.05 C80.483,247.59 78.763,241.19 78.183,234.61 C77.523,226.74 75.423,219.08 74.873,211.2 C74.463,205.9 73.543,200.66 72.923,195.38 C71.173,178.42 72.353,161.35 71.833,144.34 C75.753,144.31 79.683,144.33 83.623,144.59 C96.913,145.67 110.263,145.25 123.583,145.38 C138.953,145.57 154.303,144.83 169.633,143.97 C175.783,143.09 181.923,142.07 188.153,141.86 C196.733,141.53 204.883,138.61 213.273,137.03 C221.223,135.32 229.653,133.06 235.533,127.06 C236.153,139.47 235.633,151.91 235.803,164.34 C235.853,171.85 235.873,179.4 235.063,186.87 C232.933,192.4 233.203,198.43 231.793,204.12 C228.493,216.11 226.253,228.35 222.633,240.25 C219.813,252.39 215.383,264.03 212.263,276.07 C210.423,282.35 208.723,288.65 207.043,294.96 C201.283,311.95 197.773,329.6 194.783,347.25 C193.503,357.85 194.083,368.55 194.943,379.15 C195.513,383.89 196.433,388.58 196.533,393.37 C196.833,402.87 198.963,412.42 197.043,421.87 C193.113,424.67 188.783,426.77 184.333,428.59 C177.023,422.64 167.613,420.51 158.493,419.33 C143.703,416.53 128.583,416.23 113.583,416.38 C98.603,416.57 83.633,418.17 69.053,421.65 C63.813,422.82 59.133,425.53 54.943,428.8 C51.183,427.03 47.353,425.31 44.193,422.56 C38.993,417.21 42.243,409.37 41.943,402.82 C42.343,403.13 42.773,403.45 43.223,403.79 C43.413,389.6 44.573,375.42 45.973,361.31 C45.503,355.36 44.573,349.44 44.173,343.48 C43.633,335.98 40.983,328.9 39.393,321.61 C36.383,309.16 33.683,296.61 29.413,284.51 C25.653,271.21 21.983,257.89 18.203,244.6 C12.593,227.91 8.963,210.64 5.913,193.33 C5.503,190.84 4.833,188.42 4.123,186.02 C3.353,179.49 3.963,172.89 3.783,166.33 C3.783,153.28 3.753,140.23 3.803,127.18 M145.023,159.78 C136.973,162.3 136.913,175.46 144.773,178.22 C148.663,180.66 153.333,178.84 156.803,176.51 C159.133,173.74 159.123,169.73 158.783,166.3 C158.384,159.99 150.083,157.6 145.023,159.78 M190.904,166.72 C187.944,167.79 185.774,170.33 184.124,172.9 C180.694,179.24 183.294,187.72 189.204,191.59 C193.054,193.05 197.404,192.97 201.414,192.15 C205.894,191.16 208.664,186.95 209.984,182.84 C212.024,176.54 207.944,169.48 202.104,166.92 C198.503,165.73 194.533,165.85 190.904,166.72 M172.884,252.81 C169.774,252.92 166.654,253.98 164.414,256.15 C159.534,260.28 159.244,268.18 162.624,273.31 C166.334,277.66 173.144,279.96 178.464,277.21 C181.654,275.61 184.904,273.21 185.864,269.58 C187.084,265.01 186.274,259.53 182.584,256.3 C179.884,254.06 176.384,252.74 172.884,252.81 M123.243,332.01 C117.943,335.15 117.053,342.82 120.103,347.8 C122.283,351.34 126.803,351.86 130.593,351.5 C135.643,351.34 139.693,346.32 139.403,341.39 C139.433,337.04 136.393,332.99 132.393,331.46 C129.404,330.73 126.033,330.65 123.243,332.01 M154.073,348.95 C147.833,350.41 142.883,355.14 140.033,360.71 C138.643,364.7 138.543,369.16 139.683,373.23 C142.313,380.24 149.093,385.52 156.553,386.32 C161.173,386.57 165.683,384.69 169.523,382.25 C175.363,377.66 176.673,369.42 175.403,362.47 C173.553,353.16 163.144,346.95 154.073,348.95 M114.184,377.01 C110.964,379.15 107.714,382.23 107.404,386.32 C107.044,390.24 106.974,394.9 110.054,397.85 C113.674,402.15 120.054,402.1 125.054,400.77 C129.274,398.63 133.274,394.43 132.804,389.34 C133.554,383.83 128.934,379.92 124.974,377 C121.634,375.58 117.513,375.7 114.184,377.01 z" fill="#2B090A"/>
        <path d="M3.803,127.18 C7.803,130.66 12.493,133.23 17.553,134.81 C17.773,137.07 18.023,139.32 18.113,141.59 C17.503,150.1 17.783,158.66 18.753,167.13 C19.123,171.47 20.913,175.51 23.583,178.93 C24.833,182.27 25.093,185.94 24.603,189.46 C22.333,192.69 22.763,196.68 22.803,200.41 C22.693,204.66 24.293,209.31 27.963,211.76 C32.893,229.86 36.113,248.37 40.513,266.61 C44.183,278.16 46.063,290.16 48.813,301.94 C51.983,317.33 54.863,332.79 57.093,348.34 C57.633,359.85 57.383,371.41 57.283,382.93 C54.763,389.05 54.543,395.85 55.603,402.32 C56.033,405.01 57.663,407.29 59.143,409.53 C61.833,412.68 64.953,416.41 69.513,416.34 C78.223,417.52 86.913,411.09 88.833,402.63 C89.773,398.37 89.833,393.96 91.073,389.76 C95.363,376.76 94.833,362.86 94.873,349.34 C94.573,337.96 93.893,326.5 91.463,315.35 C90.203,309.68 89.493,303.91 88.833,298.15 C86.343,283.47 84.213,268.74 81.773,254.05 C80.483,247.59 78.763,241.19 78.183,234.61 C77.523,226.74 75.423,219.08 74.873,211.2 C74.463,205.9 73.543,200.66 72.923,195.38 C71.173,178.42 72.353,161.35 71.833,144.34 C75.753,144.31 79.683,144.33 83.623,144.59 C96.913,145.67 110.263,145.25 123.583,145.38 C138.953,145.57 154.303,144.83 169.633,143.97 C175.783,143.09 181.923,142.07 188.153,141.86 C196.733,141.53 204.883,138.61 213.273,137.03 C221.223,135.32 229.653,133.06 235.533,127.06 C236.153,139.47 235.633,151.91 235.803,164.34 C235.853,171.85 235.873,179.4 235.063,186.87 C232.933,192.4 233.203,198.43 231.793,204.12 C228.493,216.11 226.253,228.35 222.633,240.25 C219.813,252.39 215.383,264.03 212.263,276.07 C210.423,282.35 208.723,288.65 207.043,294.96 C201.283,311.95 197.773,329.6 194.783,347.25 C193.503,357.85 194.083,368.55 194.943,379.15 C195.513,383.89 196.433,388.58 196.533,393.37 C196.833,402.87 198.963,412.42 197.043,421.87 C193.113,424.67 188.783,426.77 184.333,428.59 C177.023,422.64 167.613,420.51 158.493,419.33 C143.703,416.53 128.583,416.23 113.583,416.38 C98.603,416.57 83.633,418.17 69.053,421.65 C63.813,422.82 59.133,425.53 54.943,428.8 C51.183,427.03 47.353,425.31 44.193,422.56 C38.993,417.21 42.243,409.37 41.943,402.82 C42.343,403.13 42.773,403.45 43.223,403.79 C43.413,389.6 44.573,375.42 45.973,361.31 C45.503,355.36 44.573,349.44 44.173,343.48 C43.633,335.98 40.983,328.9 39.393,321.61 C36.383,309.16 33.683,296.61 29.413,284.51 C25.653,271.21 21.983,257.89 18.203,244.6 C12.593,227.91 8.963,210.64 5.913,193.33 C5.503,190.84 4.833,188.42 4.123,186.02 C3.353,179.49 3.963,172.89 3.783,166.33 C3.783,153.28 3.753,140.23 3.803,127.18 M145.023,159.78 C136.973,162.3 136.913,175.46 144.773,178.22 C148.663,180.66 153.333,178.84 156.803,176.51 C159.133,173.74 159.123,169.73 158.783,166.3 C158.384,159.99 150.083,157.6 145.023,159.78 M190.904,166.72 C187.944,167.79 185.774,170.33 184.124,172.9 C180.694,179.24 183.294,187.72 189.204,191.59 C193.054,193.05 197.404,192.97 201.414,192.15 C205.894,191.16 208.664,186.95 209.984,182.84 C212.024,176.54 207.944,169.48 202.104,166.92 C198.503,165.73 194.533,165.85 190.904,166.72 M172.884,252.81 C169.774,252.92 166.654,253.98 164.414,256.15 C159.534,260.28 159.244,268.18 162.624,273.31 C166.334,277.66 173.144,279.96 178.464,277.21 C181.654,275.61 184.904,273.21 185.864,269.58 C187.084,265.01 186.274,259.53 182.584,256.3 C179.884,254.06 176.384,252.74 172.884,252.81 M123.243,332.01 C117.943,335.15 117.053,342.82 120.103,347.8 C122.283,351.34 126.803,351.86 130.593,351.5 C135.643,351.34 139.693,346.32 139.403,341.39 C139.433,337.04 136.393,332.99 132.393,331.46 C129.404,330.73 126.033,330.65 123.243,332.01 M154.073,348.95 C147.833,350.41 142.883,355.14 140.033,360.71 C138.643,364.7 138.543,369.16 139.683,373.23 C142.313,380.24 149.093,385.52 156.553,386.32 C161.173,386.57 165.683,384.69 169.523,382.25 C175.363,377.66 176.673,369.42 175.403,362.47 C173.553,353.16 163.144,346.95 154.073,348.95 M114.184,377.01 C110.964,379.15 107.714,382.23 107.404,386.32 C107.044,390.24 106.974,394.9 110.054,397.85 C113.674,402.15 120.054,402.1 125.054,400.77 C129.274,398.63 133.274,394.43 132.804,389.34 C133.554,383.83 128.934,379.92 124.974,377 C121.634,375.58 117.513,375.7 114.184,377.01 z" fill-opacity="0" stroke="#2B090A" stroke-width="0.5"/>
      </g>
      <g>
        <path d="M29.723,140.16 C34.563,137.7 39.703,140.45 44.653,141.1 C53.673,142.49 62.913,142.09 71.833,144.34 C72.353,161.35 71.173,178.42 72.923,195.38 C73.543,200.66 74.463,205.9 74.873,211.2 C75.423,219.08 77.523,226.74 78.183,234.61 C78.763,241.19 80.483,247.59 81.773,254.05 C84.213,268.74 86.343,283.47 88.833,298.15 C89.493,303.91 90.203,309.68 91.463,315.35 C93.893,326.5 94.573,337.96 94.873,349.34 C94.833,362.86 95.363,376.76 91.073,389.76 C89.833,393.96 89.773,398.37 88.833,402.63 C86.913,411.09 78.223,417.52 69.513,416.34 C64.953,416.41 61.833,412.68 59.143,409.53 C60.643,408.61 62.813,408.12 63.373,406.21 C64.883,402.08 64.333,397.59 64.463,393.29 C64.353,389.55 64.623,385.07 61.563,382.35 C60.413,380.62 58.653,382.56 57.283,382.93 C57.383,371.41 57.633,359.85 57.093,348.34 C54.863,332.79 51.983,317.33 48.813,301.94 C46.063,290.16 44.183,278.16 40.513,266.61 C36.113,248.37 32.893,229.86 27.963,211.76 C28.623,208.33 30.533,205 29.903,201.43 C28.983,197.13 28.503,192.21 24.603,189.46 C25.093,185.94 24.833,182.27 23.583,178.93 C24.703,177.95 26.283,177.29 27.013,175.9 C30.823,164.42 31.023,152.09 29.723,140.16 z" fill="#6B5354"/>
        <path d="M29.723,140.16 C34.563,137.7 39.703,140.45 44.653,141.1 C53.673,142.49 62.913,142.09 71.833,144.34 C72.353,161.35 71.173,178.42 72.923,195.38 C73.543,200.66 74.463,205.9 74.873,211.2 C75.423,219.08 77.523,226.74 78.183,234.61 C78.763,241.19 80.483,247.59 81.773,254.05 C84.213,268.74 86.343,283.47 88.833,298.15 C89.493,303.91 90.203,309.68 91.463,315.35 C93.893,326.5 94.573,337.96 94.873,349.34 C94.833,362.86 95.363,376.76 91.073,389.76 C89.833,393.96 89.773,398.37 88.833,402.63 C86.913,411.09 78.223,417.52 69.513,416.34 C64.953,416.41 61.833,412.68 59.143,409.53 C60.643,408.61 62.813,408.12 63.373,406.21 C64.883,402.08 64.333,397.59 64.463,393.29 C64.353,389.55 64.623,385.07 61.563,382.35 C60.413,380.62 58.653,382.56 57.283,382.93 C57.383,371.41 57.633,359.85 57.093,348.34 C54.863,332.79 51.983,317.33 48.813,301.94 C46.063,290.16 44.183,278.16 40.513,266.61 C36.113,248.37 32.893,229.86 27.963,211.76 C28.623,208.33 30.533,205 29.903,201.43 C28.983,197.13 28.503,192.21 24.603,189.46 C25.093,185.94 24.833,182.27 23.583,178.93 C24.703,177.95 26.283,177.29 27.013,175.9 C30.823,164.42 31.023,152.09 29.723,140.16 z" fill-opacity="0" stroke="#6B5354" stroke-width="0.5"/>
      </g>
      <g>
        <path d="M145.023,159.78 C150.083,157.6 158.383,159.99 158.783,166.3 C159.123,169.73 159.133,173.74 156.803,176.51 C153.333,178.84 148.663,180.66 144.773,178.22 C136.914,175.46 136.973,162.3 145.023,159.78 z" fill="#663725"/>
        <path d="M145.023,159.78 C150.083,157.6 158.383,159.99 158.783,166.3 C159.123,169.73 159.133,173.74 156.803,176.51 C153.333,178.84 148.663,180.66 144.773,178.22 C136.914,175.46 136.973,162.3 145.023,159.78 z" fill-opacity="0" stroke="#663725" stroke-width="0.5"/>
      </g>
      <g>
        <path d="M190.904,166.72 C194.534,165.85 198.504,165.73 202.104,166.92 C207.944,169.48 212.024,176.54 209.984,182.84 C208.664,186.95 205.894,191.16 201.414,192.15 C197.404,192.97 193.054,193.05 189.204,191.59 C183.294,187.72 180.694,179.24 184.124,172.9 C185.773,170.33 187.944,167.79 190.904,166.72 z" fill="#663725"/>
        <path d="M190.904,166.72 C194.534,165.85 198.504,165.73 202.104,166.92 C207.944,169.48 212.024,176.54 209.984,182.84 C208.664,186.95 205.894,191.16 201.414,192.15 C197.404,192.97 193.054,193.05 189.204,191.59 C183.294,187.72 180.694,179.24 184.124,172.9 C185.773,170.33 187.944,167.79 190.904,166.72 z" fill-opacity="0" stroke="#663725" stroke-width="0.5"/>
      </g>
      <g>
        <path d="M4.124,186.02 C4.834,188.42 5.504,190.84 5.914,193.33 C8.964,210.64 12.594,227.91 18.204,244.6 C21.984,257.89 25.654,271.21 29.414,284.51 C33.684,296.61 36.384,309.16 39.394,321.61 C40.984,328.9 43.634,335.98 44.174,343.48 C44.574,349.44 45.504,355.36 45.974,361.31 C44.574,375.42 43.414,389.6 43.224,403.79 C42.774,403.45 42.344,403.13 41.944,402.82 C42.244,409.37 38.994,417.21 44.194,422.56 C42.974,424.28 41.794,426.12 41.814,428.31 C41.434,433.2 40.964,438.17 41.624,443.06 C43.464,445.19 46.494,445.82 49.064,446.83 C64.844,451.49 81.264,453.29 97.574,454.99 C105.224,455.39 112.904,455.06 120.584,455.15 C130.294,455.03 140.094,455.73 149.734,454.04 C160.614,453.12 171.434,451.4 182.094,449.02 C187.234,447.66 192.664,446.72 197.254,443.87 C198.974,436.67 196.914,429.18 197.044,421.87 C198.964,412.42 196.834,402.87 196.534,393.37 C196.434,388.58 195.514,383.89 194.944,379.15 C194.084,368.55 193.504,357.85 194.784,347.25 C197.774,329.6 201.284,311.95 207.044,294.96 C208.724,288.65 210.424,282.35 212.264,276.07 C215.384,264.03 219.814,252.39 222.634,240.25 C226.254,228.35 228.494,216.11 231.794,204.12 C233.204,198.43 232.934,192.4 235.064,186.87 C234.094,198.31 232.464,209.76 229.234,220.81 C227.144,233.75 224.064,246.5 221.444,259.34 C219.514,267.39 218.124,275.55 215.684,283.47 C211.544,301.57 208.304,319.84 205.004,338.1 C203.654,344.06 203.554,350.21 203.024,356.28 C202.314,364.99 204.074,373.63 203.884,382.33 C203.844,386.69 203.974,391.04 204.114,395.4 C204.474,394.06 204.864,392.72 205.264,391.38 C204.594,400.4 206.044,409.38 205.984,418.4 C207.324,426.99 207.904,435.7 207.814,444.4 C207.744,446 207.464,447.85 205.964,448.72 C202.194,451.37 198.334,454.08 193.964,455.62 C181.154,459.5 167.904,461.93 154.534,462.59 C149.134,462.61 143.994,464.66 138.594,464.58 C126.254,464.6 113.914,464.58 101.574,464.59 C95.824,464.69 90.344,462.52 84.614,462.58 C77.194,462.07 69.724,461.47 62.484,459.7 C53.604,458.08 44.454,456.2 36.784,451.19 C34.714,449.84 32.184,448.16 32.294,445.38 C31.874,436.5 32.954,427.65 33.254,418.79 C33.554,411.77 33.394,404.71 34.354,397.75 C36.044,390.37 34.804,382.77 35.704,375.32 C36.534,361.65 36.584,347.77 33.614,334.34 C32.974,326.36 31.324,318.53 29.174,310.83 C25.754,292.43 21.374,274.22 17.684,255.87 C13.444,242.04 11.334,227.69 8.424,213.55 C7.414,204.3 4.023,195.39 4.124,186.02 z" fill="#B3855A"/>
        <path d="M4.124,186.02 C4.834,188.42 5.504,190.84 5.914,193.33 C8.964,210.64 12.594,227.91 18.204,244.6 C21.984,257.89 25.654,271.21 29.414,284.51 C33.684,296.61 36.384,309.16 39.394,321.61 C40.984,328.9 43.634,335.98 44.174,343.48 C44.574,349.44 45.504,355.36 45.974,361.31 C44.574,375.42 43.414,389.6 43.224,403.79 C42.774,403.45 42.344,403.13 41.944,402.82 C42.244,409.37 38.994,417.21 44.194,422.56 C42.974,424.28 41.794,426.12 41.814,428.31 C41.434,433.2 40.964,438.17 41.624,443.06 C43.464,445.19 46.494,445.82 49.064,446.83 C64.844,451.49 81.264,453.29 97.574,454.99 C105.224,455.39 112.904,455.06 120.584,455.15 C130.294,455.03 140.094,455.73 149.734,454.04 C160.614,453.12 171.434,451.4 182.094,449.02 C187.234,447.66 192.664,446.72 197.254,443.87 C198.974,436.67 196.914,429.18 197.044,421.87 C198.964,412.42 196.834,402.87 196.534,393.37 C196.434,388.58 195.514,383.89 194.944,379.15 C194.084,368.55 193.504,357.85 194.784,347.25 C197.774,329.6 201.284,311.95 207.044,294.96 C208.724,288.65 210.424,282.35 212.264,276.07 C215.384,264.03 219.814,252.39 222.634,240.25 C226.254,228.35 228.494,216.11 231.794,204.12 C233.204,198.43 232.934,192.4 235.064,186.87 C234.094,198.31 232.464,209.76 229.234,220.81 C227.144,233.75 224.064,246.5 221.444,259.34 C219.514,267.39 218.124,275.55 215.684,283.47 C211.544,301.57 208.304,319.84 205.004,338.1 C203.654,344.06 203.554,350.21 203.024,356.28 C202.314,364.99 204.074,373.63 203.884,382.33 C203.844,386.69 203.974,391.04 204.114,395.4 C204.474,394.06 204.864,392.72 205.264,391.38 C204.594,400.4 206.044,409.38 205.984,418.4 C207.324,426.99 207.904,435.7 207.814,444.4 C207.744,446 207.464,447.85 205.964,448.72 C202.194,451.37 198.334,454.08 193.964,455.62 C181.154,459.5 167.904,461.93 154.534,462.59 C149.134,462.61 143.994,464.66 138.594,464.58 C126.254,464.6 113.914,464.58 101.574,464.59 C95.824,464.69 90.344,462.52 84.614,462.58 C77.194,462.07 69.724,461.47 62.484,459.7 C53.604,458.08 44.454,456.2 36.784,451.19 C34.714,449.84 32.184,448.16 32.294,445.38 C31.874,436.5 32.954,427.65 33.254,418.79 C33.554,411.77 33.394,404.71 34.354,397.75 C36.044,390.37 34.804,382.77 35.704,375.32 C36.534,361.65 36.584,347.77 33.614,334.34 C32.974,326.36 31.324,318.53 29.174,310.83 C25.754,292.43 21.374,274.22 17.684,255.87 C13.444,242.04 11.334,227.69 8.424,213.55 C7.414,204.3 4.023,195.39 4.124,186.02 z" fill-opacity="0" stroke="#B3855A" stroke-width="0.5"/>
      </g>
      <g>
        <path d="M24.604,189.46 C28.504,192.21 28.984,197.13 29.904,201.43 C30.534,205 28.624,208.33 27.964,211.76 C24.294,209.31 22.694,204.66 22.804,200.41 C22.763,196.68 22.333,192.69 24.604,189.46 z" fill="#FEFEFE"/>
        <path d="M24.604,189.46 C28.504,192.21 28.984,197.13 29.904,201.43 C30.534,205 28.624,208.33 27.964,211.76 C24.294,209.31 22.694,204.66 22.804,200.41 C22.763,196.68 22.333,192.69 24.604,189.46 z" fill-opacity="0" stroke="#FEFEFE" stroke-width="0.5"/>
      </g>
      <g>
        <path d="M172.884,252.81 C176.384,252.74 179.884,254.06 182.584,256.3 C186.274,259.53 187.084,265.01 185.864,269.58 C184.904,273.21 181.654,275.61 178.464,277.21 C173.144,279.96 166.334,277.66 162.624,273.31 C159.244,268.18 159.534,260.28 164.414,256.15 C166.654,253.98 169.773,252.92 172.884,252.81 z" fill="#663725"/>
        <path d="M172.884,252.81 C176.384,252.74 179.884,254.06 182.584,256.3 C186.274,259.53 187.084,265.01 185.864,269.58 C184.904,273.21 181.654,275.61 178.464,277.21 C173.144,279.96 166.334,277.66 162.624,273.31 C159.244,268.18 159.534,260.28 164.414,256.15 C166.654,253.98 169.773,252.92 172.884,252.81 z" fill-opacity="0" stroke="#663725" stroke-width="0.5"/>
      </g>
      <g>
        <path d="M123.243,332.01 C126.033,330.65 129.403,330.73 132.393,331.46 C136.393,332.99 139.433,337.04 139.403,341.39 C139.693,346.32 135.643,351.34 130.593,351.5 C126.803,351.86 122.283,351.34 120.103,347.8 C117.053,342.82 117.944,335.15 123.243,332.01 z" fill="#663725"/>
        <path d="M123.243,332.01 C126.033,330.65 129.403,330.73 132.393,331.46 C136.393,332.99 139.433,337.04 139.403,341.39 C139.693,346.32 135.643,351.34 130.593,351.5 C126.803,351.86 122.283,351.34 120.103,347.8 C117.053,342.82 117.944,335.15 123.243,332.01 z" fill-opacity="0" stroke="#663725" stroke-width="0.5"/>
      </g>
      <g>
        <path d="M154.073,348.95 C163.143,346.95 173.553,353.16 175.403,362.47 C176.673,369.42 175.363,377.66 169.523,382.25 C165.683,384.69 161.173,386.57 156.553,386.32 C149.093,385.52 142.313,380.24 139.683,373.23 C138.543,369.16 138.643,364.7 140.033,360.71 C142.884,355.14 147.833,350.41 154.073,348.95 z" fill="#663725"/>
        <path d="M154.073,348.95 C163.143,346.95 173.553,353.16 175.403,362.47 C176.673,369.42 175.363,377.66 169.523,382.25 C165.683,384.69 161.173,386.57 156.553,386.32 C149.093,385.52 142.313,380.24 139.683,373.23 C138.543,369.16 138.643,364.7 140.033,360.71 C142.884,355.14 147.833,350.41 154.073,348.95 z" fill-opacity="0" stroke="#663725" stroke-width="0.5"/>
      </g>
      <g>
        <path d="M114.184,377.01 C117.514,375.7 121.634,375.58 124.974,377 C128.934,379.92 133.554,383.83 132.804,389.34 C133.274,394.43 129.274,398.63 125.054,400.77 C120.054,402.1 113.674,402.15 110.054,397.85 C106.974,394.9 107.044,390.24 107.404,386.32 C107.713,382.23 110.963,379.15 114.184,377.01 z" fill="#663725"/>
        <path d="M114.184,377.01 C117.514,375.7 121.634,375.58 124.974,377 C128.934,379.92 133.554,383.83 132.804,389.34 C133.274,394.43 129.274,398.63 125.054,400.77 C120.054,402.1 113.674,402.15 110.054,397.85 C106.974,394.9 107.044,390.24 107.404,386.32 C107.713,382.23 110.963,379.15 114.184,377.01 z" fill-opacity="0" stroke="#663725" stroke-width="0.5"/>
      </g>
      <g>
        <path d="M57.283,382.93 C58.653,382.56 60.413,380.62 61.563,382.35 C64.623,385.07 64.353,389.55 64.463,393.29 C64.333,397.59 64.883,402.08 63.373,406.21 C62.813,408.12 60.643,408.61 59.143,409.53 C57.663,407.29 56.033,405.01 55.603,402.32 C54.543,395.85 54.763,389.05 57.283,382.93 z" fill="#FFFFFF"/>
        <path d="M57.283,382.93 C58.653,382.56 60.413,380.62 61.563,382.35 C64.623,385.07 64.353,389.55 64.463,393.29 C64.333,397.59 64.883,402.08 63.373,406.21 C62.813,408.12 60.643,408.61 59.143,409.53 C57.663,407.29 56.033,405.01 55.603,402.32 C54.543,395.85 54.763,389.05 57.283,382.93 z" fill-opacity="0" stroke="#FFFFFF" stroke-width="0.5"/>
      </g>
      <g>
        <path d="M69.053,421.65 C83.633,418.17 98.603,416.57 113.583,416.38 C128.583,416.23 143.703,416.53 158.493,419.33 C167.613,420.51 177.023,422.64 184.333,428.59 C183.613,430.87 183.593,433.82 181.163,435.03 C177.093,437.55 172.503,439.14 168.023,440.76 C162.163,442.28 156.043,442.37 150.173,443.83 C132.683,445.67 115.023,446 97.483,444.6 C90.893,444.57 84.573,442.68 78.083,442.02 C71.663,441.31 65.593,438.85 59.833,436.07 C56.963,434.69 55.433,431.83 54.943,428.8 C59.134,425.53 63.813,422.82 69.053,421.65 z" fill="#663725"/>
        <path d="M69.053,421.65 C83.633,418.17 98.603,416.57 113.583,416.38 C128.583,416.23 143.703,416.53 158.493,419.33 C167.613,420.51 177.023,422.64 184.333,428.59 C183.613,430.87 183.593,433.82 181.163,435.03 C177.093,437.55 172.503,439.14 168.023,440.76 C162.163,442.28 156.043,442.37 150.173,443.83 C132.683,445.67 115.023,446 97.483,444.6 C90.893,444.57 84.573,442.68 78.083,442.02 C71.663,441.31 65.593,438.85 59.833,436.07 C56.963,434.69 55.433,431.83 54.943,428.8 C59.134,425.53 63.813,422.82 69.053,421.65 z" fill-opacity="0" stroke="#663725" stroke-width="0.5"/>
      </g>
      <g>
        <path d="M184.333,428.59 C188.783,426.77 193.113,424.67 197.043,421.87 C196.913,429.18 198.973,436.67 197.253,443.87 C192.663,446.72 187.233,447.66 182.093,449.02 C171.433,451.4 160.613,453.12 149.733,454.04 C140.093,455.73 130.293,455.03 120.583,455.15 C112.903,455.06 105.223,455.39 97.573,454.99 C81.263,453.29 64.843,451.49 49.063,446.83 C46.493,445.82 43.463,445.19 41.623,443.06 C40.963,438.17 41.433,433.2 41.813,428.31 C41.793,426.12 42.973,424.28 44.193,422.56 C47.353,425.31 51.183,427.03 54.943,428.8 C55.433,431.83 56.963,434.69 59.833,436.07 C65.593,438.85 71.663,441.31 78.083,442.02 C84.573,442.68 90.893,444.57 97.483,444.6 C115.023,446 132.683,445.67 150.173,443.83 C156.043,442.37 162.163,442.28 168.023,440.76 C172.503,439.14 177.093,437.55 181.163,435.03 C183.594,433.82 183.614,430.87 184.333,428.59 z" fill="#F1E8CE"/>
        <path d="M184.333,428.59 C188.783,426.77 193.113,424.67 197.043,421.87 C196.913,429.18 198.973,436.67 197.253,443.87 C192.663,446.72 187.233,447.66 182.093,449.02 C171.433,451.4 160.613,453.12 149.733,454.04 C140.093,455.73 130.293,455.03 120.583,455.15 C112.903,455.06 105.223,455.39 97.573,454.99 C81.263,453.29 64.843,451.49 49.063,446.83 C46.493,445.82 43.463,445.19 41.623,443.06 C40.963,438.17 41.433,433.2 41.813,428.31 C41.793,426.12 42.973,424.28 44.193,422.56 C47.353,425.31 51.183,427.03 54.943,428.8 C55.433,431.83 56.963,434.69 59.833,436.07 C65.593,438.85 71.663,441.31 78.083,442.02 C84.573,442.68 90.893,444.57 97.483,444.6 C115.023,446 132.683,445.67 150.173,443.83 C156.043,442.37 162.163,442.28 168.023,440.76 C172.503,439.14 177.093,437.55 181.163,435.03 C183.594,433.82 183.614,430.87 184.333,428.59 z" fill-opacity="0" stroke="#F1E8CE" stroke-width="0.5"/>
      </g>
    </g>
  </g>
</svg>
